<svg xmlns="http://www.w3.org/2000/svg" width="240" height="210" viewBox="0 0 240 210" fill="none">
  <g stroke="#593b00" stroke-width="8" stroke-linecap="round" stroke-linejoin="round">
    <path d="M72 83c16.5 0 31.5 6.7 42.3 17.5A59.8 59.8 0 1 1 72 83Z"/>
    <path d="M159 83a59.8 59.8 0 1 1-42.3 102.1A59.8 59.8 0 0 0 159 83Z"/>
    <path d="M102 103a59.6 59.6 0 0 1 27.2 0"/>
    <path d="M99 48 119 25l27 21-16 31H99L84 46l19-21 16 23"/>
    <path d="m84 46 18 31"/>
    <path d="m146 46-16 31"/>
    <path d="M105 25h29"/>
    <path d="M42 51l-13-16"/>
    <path d="M60 35l-4-20"/>
    <path d="M177 37l13-16"/>
    <path d="M190 70l21-3"/>
    <path d="M36 78l-21-3"/>
  </g>
</svg>
